<?xml version="1.0" encoding="utf-8"?>
<!DOCTYPE svg PUBLIC "-//W3C//DTD SVG 1.1//EN" "http://www.w3.org/Graphics/SVG/1.1/DTD/svg11.dtd">
<svg version="1.1" id="Layer_1" xmlns="http://www.w3.org/2000/svg" xmlns:xlink="http://www.w3.org/1999/xlink" x="0px" y="0px"
	 width="55px" height="55px" viewBox="0 0 55 55" style="enable-background:new 0 0 55 55;" xml:space="preserve">
<g>
	<path d="M47,15.909v15.426C47,32.68,47,36,47,36s-3.55,0-4.908,0H26.665C25.307,36,22,36,22,36s0-3.32,0-4.665V15.909
		C22,14.55,22,11,22,11s3.307,0,4.665,0h15.427C43.45,11,47,11,47,11S47,14.55,47,15.909z M44,31.335V15.909C44,15.325,44,14,44,14
		s-1.324,0-1.908,0H26.665C26.08,14,25,14,25,14s0,1.325,0,1.909v15.426C25,31.919,25,33,25,33s1.08,0,1.665,0h15.427
		C42.676,33,44,33,44,33S44,31.919,44,31.335z M41,22.921v1.402c0,0.205,0.13,0.36-0.002,0.491C40.867,24.945,40.895,25,40.689,25
		H36v4.932c0,0.205-0.176,0.557-0.308,0.688C35.562,30.752,35.284,31,35.079,31h-1.402c-0.204,0-0.36-0.248-0.491-0.381
		C33.055,30.488,33,30.137,33,29.932V25h-4.932c-0.205,0-0.556-0.055-0.687-0.186C27.249,24.684,27,24.528,27,24.323v-1.402
		c0-0.205,0.249-0.482,0.382-0.613C27.513,22.176,27.863,22,28.068,22H33v-4.689c0-0.203,0.055-0.178,0.186-0.309
		C33.316,16.869,33.473,17,33.677,17h1.402c0.205,0,0.482-0.131,0.613,0.002C35.824,17.133,36,17.107,36,17.311V22h4.689
		c0.205,0,0.178,0.176,0.309,0.308C41.13,22.438,41,22.716,41,22.921z"/>
</g>
<g>
	<path d="M17,13.104v4.207C17,17.896,17,19,17,19s-1.25,0-1.834,0h-4.208C10.374,19,9,19,9,19s0-1.104,0-1.689v-4.207
		C9,12.52,9,11,9,11s1.374,0,1.958,0h4.208C15.75,11,17,11,17,11S17,12.52,17,13.104z M17,24.323v4.206C17,29.114,17,30,17,30
		s-1.25,0-1.834,0h-4.208C10.374,30,9,30,9,30s0-0.886,0-1.471v-4.206C9,23.739,9,22,9,22s1.374,0,1.958,0h4.208
		C15.75,22,17,22,17,22S17,23.739,17,24.323z M17,35.542v4.208c0,0.584,0,1.25,0,1.25s-1.25,0-1.834,0h-4.208C10.374,41,9,41,9,41
		s0-0.666,0-1.25v-4.208C9,34.958,9,33,9,33s1.374,0,1.958,0h4.208C15.75,33,17,33,17,33S17,34.958,17,35.542z"/>
</g>
</svg>
