<?xml version="1.0" encoding="utf-8"?>
<!DOCTYPE svg PUBLIC "-//W3C//DTD SVG 1.1//EN" "http://www.w3.org/Graphics/SVG/1.1/DTD/svg11.dtd">
<svg version="1.1" id="Layer_1" xmlns="http://www.w3.org/2000/svg" xmlns:xlink="http://www.w3.org/1999/xlink" x="0px" y="0px"
	 width="100px" height="100px" viewBox="0 0 100 100" style="enable-background:new 0 0 100 100;" xml:space="preserve">
<path style="fill:#46495E;" d="M100,94c0,3.313-2.687,6-6,6H6c-3.313,0-6-2.687-6-6V6c0-3.313,2.687-6,6-6h88c3.313,0,6,2.687,6,6
	V94z"/>
<g>
	<path style="fill:#FFFFFF;" d="M83,24.75v27.5c0,2.396,0,8.75,0,8.75s-6.328,0-8.75,0h-27.5C44.328,61,38,61,38,61s0-6.354,0-8.75
		v-27.5c0-2.422,0-8.75,0-8.75s6.328,0,8.75,0h27.5c2.422,0,8.75,0,8.75,0S83,22.328,83,24.75z M78,52.25v-27.5
		c0-1.041,0-3.75,0-3.75s-2.709,0-3.75,0h-27.5C45.708,21,43,21,43,21s0,2.709,0,3.75v27.5c0,1.042,0,3.75,0,3.75s2.708,0,3.75,0
		h27.5c1.041,0,3.75,0,3.75,0S78,53.292,78,52.25z M73,37.25v2.5c0,0.365-0.117,0.664-0.352,0.898S72.114,41,71.75,41H63v8.75
		c0,0.365-0.117,0.664-0.352,0.898S62.114,51,61.75,51h-2.5c-0.365,0-0.664-0.117-0.898-0.352S58,50.115,58,49.75V41h-8.75
		c-0.365,0-0.664-0.117-0.898-0.352S48,40.115,48,39.75v-2.5c0-0.364,0.117-0.664,0.352-0.898S48.885,36,49.25,36H58v-8.75
		c0-0.364,0.117-0.664,0.352-0.898S58.885,26,59.25,26h2.5c0.364,0,0.664,0.117,0.898,0.352S63,26.886,63,27.25V36h8.75
		c0.364,0,0.664,0.117,0.898,0.352S73,36.886,73,37.25z"/>
</g>
<g>
	<path style="fill:#FFFFFF;" d="M30,19.75v7.5c0,1.042-0.365,1.928-1.094,2.656C28.177,30.635,27.291,31,26.25,31h-7.5
		c-1.042,0-1.928-0.364-2.656-1.094C15.364,29.177,15,28.292,15,27.25v-7.5c0-1.041,0.364-1.927,1.094-2.656
		C16.822,16.365,17.708,16,18.75,16h7.5c1.041,0,1.927,0.365,2.656,1.094C29.635,17.823,30,18.708,30,19.75z M30,39.75v7.5
		c0,1.042-0.365,1.928-1.094,2.656C28.177,50.635,27.291,51,26.25,51h-7.5c-1.042,0-1.928-0.364-2.656-1.094
		C15.364,49.177,15,48.292,15,47.25v-7.5c0-1.041,0.364-1.927,1.094-2.656C16.822,36.365,17.708,36,18.75,36h7.5
		c1.041,0,1.927,0.365,2.656,1.094C29.635,37.823,30,38.708,30,39.75z M30,59.75v7.5c0,1.042-0.365,1.928-1.094,2.656
		C28.177,70.635,27.291,71,26.25,71h-7.5c-1.042,0-1.928-0.364-2.656-1.094C15.364,69.177,15,68.292,15,67.25v-7.5
		c0-1.041,0.364-1.927,1.094-2.656C16.822,56.365,17.708,56,18.75,56h7.5c1.041,0,1.927,0.365,2.656,1.094
		C29.635,57.823,30,58.708,30,59.75z"/>
</g>
</svg>
